<svg width="25" height="24" viewBox="0 0 25 24" fill="none" xmlns="http://www.w3.org/2000/svg">
<g id="Photo" clip-path="url(#clip0_331_4358)">
<path id="Vector" d="M21.52 5H19.5V2.98C19.5 2.44 19.06 2 18.52 2H18.49C17.94 2 17.5 2.44 17.5 2.98V5H15.49C14.95 5 14.51 5.44 14.5 5.98V6.01C14.5 6.56 14.94 7 15.49 7H17.5V9.01C17.5 9.55 17.94 10 18.49 9.99H18.52C19.06 9.99 19.5 9.55 19.5 9.01V7H21.52C22.06 7 22.5 6.56 22.5 6.02V5.98C22.5 5.44 22.06 5 21.52 5ZM16.5 9.01V8H15.49C14.96 8 14.46 7.79 14.08 7.42C13.71 7.04 13.5 6.54 13.5 5.98C13.5 5.62 13.6 5.29 13.77 5H5.5C4.4 5 3.5 5.9 3.5 7V19C3.5 20.1 4.4 21 5.5 21H17.5C18.6 21 19.5 20.1 19.5 19V10.72C19.2 10.89 18.86 11 18.48 11C17.39 10.99 16.5 10.1 16.5 9.01ZM16.46 19H6.5C6.09 19 5.85 18.53 6.1 18.2L8.08 15.57C8.29 15.29 8.7 15.31 8.9 15.59L10.5 18L13.11 14.52C13.31 14.26 13.7 14.25 13.9 14.51L16.85 18.19C17.11 18.52 16.88 19 16.46 19Z" fill="#ACACAC"/>
</g>
<defs>
<clipPath id="clip0_331_4358">
<rect width="24" height="24" fill="white" transform="translate(0.5)"/>
</clipPath>
</defs>
</svg>
